<svg id="Layer_1" data-name="Layer 1" xmlns="http://www.w3.org/2000/svg" viewBox="0 0 670.68 433.4"><defs><style>.cls-1{fill:#efe63c;}.cls-1,.cls-10,.cls-11,.cls-13,.cls-2,.cls-3,.cls-4,.cls-5,.cls-6,.cls-7,.cls-8,.cls-9{stroke:#1e1e1e;stroke-miterlimit:10;}.cls-1,.cls-10,.cls-11,.cls-12,.cls-13,.cls-2,.cls-3,.cls-4,.cls-5,.cls-6,.cls-7,.cls-8,.cls-9{opacity:0.75;}.cls-2{fill:#e8e69a;}.cls-3{fill:#eaa4a4;}.cls-4{fill:#f478cb;}.cls-5{fill:#933ee5;}.cls-6{fill:#3ee5b1;}.cls-7{fill:#3e91e5;}.cls-8{fill:#a2e1f2;}.cls-9{fill:#3ee5e5;}.cls-10{fill:#8f6bf2;}.cls-11{fill:#3e3ee5;}.cls-13{fill:#3e82e5;}</style></defs><title>canada</title><g id="NS"><polygon class="cls-1" points="625.51 316.7 625.51 329.6 636.69 336.05 647.86 329.6 647.86 316.7 636.69 310.25 625.51 316.7"/><polygon class="cls-1" points="603.19 355.41 603.19 368.31 614.37 374.76 625.54 368.31 625.54 355.41 614.37 348.95 603.19 355.41"/><polygon class="cls-1" points="614.35 336.05 614.35 348.95 625.53 355.41 636.7 348.95 636.7 336.05 625.53 329.6 614.35 336.05"/><polygon class="cls-1" points="603.19 316.7 603.19 329.6 614.37 336.05 625.54 329.6 625.54 316.7 614.37 310.25 603.19 316.7"/><polygon class="cls-1" points="592.03 336.05 592.03 348.95 603.21 355.41 614.38 348.95 614.38 336.05 603.21 329.6 592.03 336.05"/></g><g id="NB"><polygon class="cls-2" points="580.87 355.41 580.87 368.31 592.04 374.76 603.22 368.31 603.22 355.41 592.04 348.95 580.87 355.41"/><polygon class="cls-2" points="558.55 355.41 558.55 368.31 569.72 374.76 580.9 368.31 580.9 355.41 569.72 348.95 558.55 355.41"/><polygon class="cls-2" points="569.71 336.05 569.71 348.95 580.88 355.41 592.06 348.95 592.06 336.05 580.88 329.6 569.71 336.05"/><polygon class="cls-2" points="536.23 355.41 536.23 368.31 547.4 374.76 558.57 368.31 558.57 355.41 547.4 348.95 536.23 355.41"/><polygon class="cls-2" points="547.39 336.05 547.39 348.95 558.56 355.41 569.74 348.95 569.74 336.05 558.56 329.6 547.39 336.05"/></g><g id="NL"><polygon class="cls-3" points="647.84 239.28 647.84 252.18 659.01 258.63 670.18 252.18 670.18 239.28 659.01 232.83 647.84 239.28"/><polygon class="cls-3" points="636.67 258.63 636.67 271.54 647.85 277.99 659.02 271.54 659.02 258.63 647.85 252.18 636.67 258.63"/><polygon class="cls-3" points="625.51 239.28 625.51 252.18 636.69 258.63 647.86 252.18 647.86 239.28 636.69 232.83 625.51 239.28"/><polygon class="cls-3" points="636.67 219.93 636.67 232.83 647.85 239.28 659.02 232.83 659.02 219.93 647.85 213.47 636.67 219.93"/><polygon class="cls-3" points="614.35 258.63 614.35 271.54 625.53 277.99 636.7 271.54 636.7 258.63 625.53 252.18 614.35 258.63"/><polygon class="cls-3" points="614.35 219.93 614.35 232.83 625.53 239.28 636.7 232.83 636.7 219.93 625.53 213.47 614.35 219.93"/><polygon class="cls-3" points="603.19 200.57 603.19 213.47 614.37 219.93 625.54 213.47 625.54 200.57 614.37 194.12 603.19 200.57"/><polygon class="cls-3" points="580.87 200.57 580.87 213.47 592.04 219.93 603.22 213.47 603.22 200.57 592.04 194.12 580.87 200.57"/><polygon class="cls-3" points="569.71 219.93 569.71 232.83 580.88 239.28 592.06 232.83 592.06 219.93 580.88 213.47 569.71 219.93"/><polygon class="cls-3" points="558.55 200.57 558.55 213.47 569.72 219.93 580.9 213.47 580.9 200.57 569.72 194.12 558.55 200.57"/><polygon class="cls-3" points="569.71 181.22 569.71 194.12 580.88 200.57 592.06 194.12 592.06 181.22 580.88 174.77 569.71 181.22"/><polygon class="cls-3" points="547.39 219.93 547.39 232.83 558.56 239.28 569.74 232.83 569.74 219.93 558.56 213.47 547.39 219.93"/><polygon class="cls-3" points="536.23 200.57 536.23 213.47 547.4 219.93 558.57 213.47 558.57 200.57 547.4 194.12 536.23 200.57"/><polygon class="cls-3" points="547.39 181.22 547.39 194.12 558.56 200.57 569.74 194.12 569.74 181.22 558.56 174.77 547.39 181.22"/><polygon class="cls-3" points="525.07 181.22 525.07 194.12 536.24 200.57 547.41 194.12 547.41 181.22 536.24 174.77 525.07 181.22"/><polygon class="cls-3" points="513.9 161.86 513.9 174.77 525.08 181.22 536.25 174.77 536.25 161.86 525.08 155.41 513.9 161.86"/><polygon class="cls-3" points="603.19 239.28 603.19 252.18 614.37 258.63 625.54 252.18 625.54 239.28 614.37 232.83 603.19 239.28"/><polygon class="cls-3" points="592.03 219.93 592.03 232.83 603.21 239.28 614.38 232.83 614.38 219.93 603.21 213.47 592.03 219.93"/><polygon class="cls-3" points="558.55 239.28 558.55 252.18 569.72 258.63 580.9 252.18 580.9 239.28 569.72 232.83 558.55 239.28"/><polygon class="cls-3" points="536.23 239.28 536.23 252.18 547.4 258.63 558.57 252.18 558.57 239.28 547.4 232.83 536.23 239.28"/><polygon class="cls-3" points="525.07 219.93 525.07 232.83 536.24 239.28 547.41 232.83 547.41 219.93 536.24 213.47 525.07 219.93"/><polygon class="cls-3" points="513.9 200.57 513.9 213.47 525.08 219.93 536.25 213.47 536.25 200.57 525.08 194.12 513.9 200.57"/><polygon class="cls-3" points="502.74 181.22 502.74 194.12 513.92 200.57 525.09 194.12 525.09 181.22 513.92 174.77 502.74 181.22"/><polygon class="cls-3" points="491.58 161.86 491.58 174.77 502.76 181.22 513.93 174.77 513.93 161.86 502.76 155.41 491.58 161.86"/></g><g id="QC"><polygon class="cls-4" points="402.3 200.57 402.3 213.47 413.47 219.93 424.64 213.47 424.64 200.57 413.47 194.12 402.3 200.57"/><polygon class="cls-4" points="580.87 277.99 580.87 290.89 592.04 297.34 603.22 290.89 603.22 277.99 592.04 271.54 580.87 277.99"/><polygon class="cls-4" points="592.03 258.63 592.03 271.54 603.21 277.99 614.38 271.54 614.38 258.63 603.21 252.18 592.03 258.63"/><polygon class="cls-4" points="580.87 239.28 580.87 252.18 592.04 258.63 603.22 252.18 603.22 239.28 592.04 232.83 580.87 239.28"/><polygon class="cls-4" points="558.55 277.99 558.55 290.89 569.72 297.34 580.9 290.89 580.9 277.99 569.72 271.54 558.55 277.99"/><polygon class="cls-4" points="569.71 258.63 569.71 271.54 580.88 277.99 592.06 271.54 592.06 258.63 580.88 252.18 569.71 258.63"/><polygon class="cls-4" points="536.23 316.7 536.23 329.6 547.4 336.05 558.57 329.6 558.57 316.7 547.4 310.25 536.23 316.7"/><polygon class="cls-4" points="547.39 297.34 547.39 310.25 558.56 316.7 569.74 310.25 569.74 297.34 558.56 290.89 547.39 297.34"/><polygon class="cls-4" points="536.23 277.99 536.23 290.89 547.4 297.34 558.57 290.89 558.57 277.99 547.4 271.54 536.23 277.99"/><polygon class="cls-4" points="547.39 258.63 547.39 271.54 558.56 277.99 569.74 271.54 569.74 258.63 558.56 252.18 547.39 258.63"/><polygon class="cls-4" points="525.07 374.76 525.07 387.66 536.24 394.11 547.41 387.66 547.41 374.76 536.24 368.31 525.07 374.76"/><polygon class="cls-4" points="513.9 355.41 513.9 368.31 525.08 374.76 536.25 368.31 536.25 355.41 525.08 348.95 513.9 355.41"/><polygon class="cls-4" points="525.07 336.05 525.07 348.95 536.24 355.41 547.41 348.95 547.41 336.05 536.24 329.6 525.07 336.05"/><polygon class="cls-4" points="513.9 316.7 513.9 329.6 525.08 336.05 536.25 329.6 536.25 316.7 525.08 310.25 513.9 316.7"/><polygon class="cls-4" points="525.07 297.34 525.07 310.25 536.24 316.7 547.41 310.25 547.41 297.34 536.24 290.89 525.07 297.34"/><polygon class="cls-4" points="513.9 277.99 513.9 290.89 525.08 297.34 536.25 290.89 536.25 277.99 525.08 271.54 513.9 277.99"/><polygon class="cls-4" points="525.07 258.63 525.07 271.54 536.24 277.99 547.41 271.54 547.41 258.63 536.24 252.18 525.07 258.63"/><polygon class="cls-4" points="513.9 239.28 513.9 252.18 525.08 258.63 536.25 252.18 536.25 239.28 525.08 232.83 513.9 239.28"/><polygon class="cls-4" points="491.58 394.11 491.58 407.02 502.76 413.47 513.93 407.02 513.93 394.11 502.76 387.66 491.58 394.11"/><polygon class="cls-4" points="502.74 374.76 502.74 387.66 513.92 394.11 525.09 387.66 525.09 374.76 513.92 368.31 502.74 374.76"/><polygon class="cls-4" points="491.58 355.41 491.58 368.31 502.76 374.76 513.93 368.31 513.93 355.41 502.76 348.95 491.58 355.41"/><polygon class="cls-4" points="502.74 336.05 502.74 348.95 513.92 355.41 525.09 348.95 525.09 336.05 513.92 329.6 502.74 336.05"/><polygon class="cls-4" points="491.58 316.7 491.58 329.6 502.76 336.05 513.93 329.6 513.93 316.7 502.76 310.25 491.58 316.7"/><polygon class="cls-4" points="502.74 297.34 502.74 310.25 513.92 316.7 525.09 310.25 525.09 297.34 513.92 290.89 502.74 297.34"/><polygon class="cls-4" points="491.58 277.99 491.58 290.89 502.76 297.34 513.93 290.89 513.93 277.99 502.76 271.54 491.58 277.99"/><polygon class="cls-4" points="502.74 258.63 502.74 271.54 513.92 277.99 525.09 271.54 525.09 258.63 513.92 252.18 502.74 258.63"/><polygon class="cls-4" points="491.58 239.28 491.58 252.18 502.76 258.63 513.93 252.18 513.93 239.28 502.76 232.83 491.58 239.28"/><polygon class="cls-4" points="502.74 219.93 502.74 232.83 513.92 239.28 525.09 232.83 525.09 219.93 513.92 213.47 502.74 219.93"/><polygon class="cls-4" points="491.58 200.57 491.58 213.47 502.76 219.93 513.93 213.47 513.93 200.57 502.76 194.12 491.58 200.57"/><polygon class="cls-4" points="469.26 394.11 469.26 407.02 480.43 413.47 491.61 407.02 491.61 394.11 480.43 387.66 469.26 394.11"/><polygon class="cls-4" points="480.42 374.76 480.42 387.66 491.6 394.11 502.77 387.66 502.77 374.76 491.6 368.31 480.42 374.76"/><polygon class="cls-4" points="469.26 355.41 469.26 368.31 480.43 374.76 491.61 368.31 491.61 355.41 480.43 348.95 469.26 355.41"/><polygon class="cls-4" points="480.42 336.05 480.42 348.95 491.6 355.41 502.77 348.95 502.77 336.05 491.6 329.6 480.42 336.05"/><polygon class="cls-4" points="469.26 316.7 469.26 329.6 480.43 336.05 491.61 329.6 491.61 316.7 480.43 310.25 469.26 316.7"/><polygon class="cls-4" points="480.42 297.34 480.42 310.25 491.6 316.7 502.77 310.25 502.77 297.34 491.6 290.89 480.42 297.34"/><polygon class="cls-4" points="469.26 277.99 469.26 290.89 480.43 297.34 491.61 290.89 491.61 277.99 480.43 271.54 469.26 277.99"/><polygon class="cls-4" points="480.42 258.63 480.42 271.54 491.6 277.99 502.77 271.54 502.77 258.63 491.6 252.18 480.42 258.63"/><polygon class="cls-4" points="469.26 239.28 469.26 252.18 480.43 258.63 491.61 252.18 491.61 239.28 480.43 232.83 469.26 239.28"/><polygon class="cls-4" points="480.42 219.93 480.42 232.83 491.6 239.28 502.77 232.83 502.77 219.93 491.6 213.47 480.42 219.93"/><polygon class="cls-4" points="469.26 200.57 469.26 213.47 480.43 219.93 491.61 213.47 491.61 200.57 480.43 194.12 469.26 200.57"/><polygon class="cls-4" points="480.42 181.22 480.42 194.12 491.6 200.57 502.77 194.12 502.77 181.22 491.6 174.77 480.42 181.22"/><polygon class="cls-4" points="458.1 374.76 458.1 387.66 469.27 394.11 480.45 387.66 480.45 374.76 469.27 368.31 458.1 374.76"/><polygon class="cls-4" points="446.94 355.41 446.94 368.31 458.11 374.76 469.29 368.31 469.29 355.41 458.11 348.95 446.94 355.41"/><polygon class="cls-4" points="458.1 336.05 458.1 348.95 469.27 355.41 480.45 348.95 480.45 336.05 469.27 329.6 458.1 336.05"/><polygon class="cls-4" points="446.94 316.7 446.94 329.6 458.11 336.05 469.29 329.6 469.29 316.7 458.11 310.25 446.94 316.7"/><polygon class="cls-4" points="458.1 297.34 458.1 310.25 469.27 316.7 480.45 310.25 480.45 297.34 469.27 290.89 458.1 297.34"/><polygon class="cls-4" points="446.94 277.99 446.94 290.89 458.11 297.34 469.29 290.89 469.29 277.99 458.11 271.54 446.94 277.99"/><polygon class="cls-4" points="458.1 258.63 458.1 271.54 469.27 277.99 480.45 271.54 480.45 258.63 469.27 252.18 458.1 258.63"/><polygon class="cls-4" points="446.94 239.28 446.94 252.18 458.11 258.63 469.29 252.18 469.29 239.28 458.11 232.83 446.94 239.28"/><polygon class="cls-4" points="458.1 219.93 458.1 232.83 469.27 239.28 480.45 232.83 480.45 219.93 469.27 213.47 458.1 219.93"/><polygon class="cls-4" points="446.94 200.57 446.94 213.47 458.11 219.93 469.29 213.47 469.29 200.57 458.11 194.12 446.94 200.57"/><polygon class="cls-4" points="458.1 181.22 458.1 194.12 469.27 200.57 480.45 194.12 480.45 181.22 469.27 174.77 458.1 181.22"/><polygon class="cls-4" points="446.94 161.86 446.94 174.77 458.11 181.22 469.29 174.77 469.29 161.86 458.11 155.41 446.94 161.86"/><polygon class="cls-4" points="435.78 336.05 435.78 348.95 446.95 355.41 458.13 348.95 458.13 336.05 446.95 329.6 435.78 336.05"/><polygon class="cls-4" points="435.78 297.34 435.78 310.25 446.95 316.7 458.13 310.25 458.13 297.34 446.95 290.89 435.78 297.34"/><polygon class="cls-4" points="424.62 277.99 424.62 290.89 435.79 297.34 446.96 290.89 446.96 277.99 435.79 271.54 424.62 277.99"/><polygon class="cls-4" points="435.78 258.63 435.78 271.54 446.95 277.99 458.13 271.54 458.13 258.63 446.95 252.18 435.78 258.63"/><polygon class="cls-4" points="424.62 239.28 424.62 252.18 435.79 258.63 446.96 252.18 446.96 239.28 435.79 232.83 424.62 239.28"/><polygon class="cls-4" points="435.78 219.93 435.78 232.83 446.95 239.28 458.13 232.83 458.13 219.93 446.95 213.47 435.78 219.93"/><polygon class="cls-4" points="424.62 200.57 424.62 213.47 435.79 219.93 446.96 213.47 446.96 200.57 435.79 194.12 424.62 200.57"/><polygon class="cls-4" points="435.78 181.22 435.78 194.12 446.95 200.57 458.13 194.12 458.13 181.22 446.95 174.77 435.78 181.22"/><polygon class="cls-4" points="424.62 161.86 424.62 174.77 435.79 181.22 446.96 174.77 446.96 161.86 435.79 155.41 424.62 161.86"/><polygon class="cls-4" points="413.45 258.63 413.45 271.54 424.63 277.99 435.8 271.54 435.8 258.63 424.63 252.18 413.45 258.63"/><polygon class="cls-4" points="402.3 239.28 402.3 252.18 413.47 258.63 424.64 252.18 424.64 239.28 413.47 232.83 402.3 239.28"/><polygon class="cls-4" points="413.45 219.93 413.45 232.83 424.63 239.28 435.8 232.83 435.8 219.93 424.63 213.47 413.45 219.93"/><polygon class="cls-4" points="413.45 181.22 413.45 194.12 424.63 200.57 435.8 194.12 435.8 181.22 424.63 174.77 413.45 181.22"/></g><g id="ON"><polygon class="cls-5" points="446.94 394.11 446.94 407.02 458.11 413.47 469.29 407.02 469.29 394.11 458.11 387.66 446.94 394.11"/><polygon class="cls-5" points="435.78 413.47 435.78 426.37 446.95 432.82 458.13 426.37 458.13 413.47 446.95 407.02 435.78 413.47"/><polygon class="cls-5" points="424.62 394.11 424.62 407.02 435.79 413.47 446.96 407.02 446.96 394.11 435.79 387.66 424.62 394.11"/><polygon class="cls-5" points="435.78 374.76 435.78 387.66 446.95 394.11 458.13 387.66 458.13 374.76 446.95 368.31 435.78 374.76"/><polygon class="cls-5" points="424.62 355.41 424.62 368.31 435.79 374.76 446.96 368.31 446.96 355.41 435.79 348.95 424.62 355.41"/><polygon class="cls-5" points="424.62 316.7 424.62 329.6 435.79 336.05 446.96 329.6 446.96 316.7 435.79 310.25 424.62 316.7"/><polygon class="cls-5" points="402.3 394.11 402.3 407.02 413.47 413.47 424.64 407.02 424.64 394.11 413.47 387.66 402.3 394.11"/><polygon class="cls-5" points="413.45 374.76 413.45 387.66 424.63 394.11 435.8 387.66 435.8 374.76 424.63 368.31 413.45 374.76"/><polygon class="cls-5" points="402.3 355.41 402.3 368.31 413.47 374.76 424.64 368.31 424.64 355.41 413.47 348.95 402.3 355.41"/><polygon class="cls-5" points="413.45 336.05 413.45 348.95 424.63 355.41 435.8 348.95 435.8 336.05 424.63 329.6 413.45 336.05"/><polygon class="cls-5" points="402.3 316.7 402.3 329.6 413.47 336.05 424.64 329.6 424.64 316.7 413.47 310.25 402.3 316.7"/><polygon class="cls-5" points="391.13 374.76 391.13 387.66 402.31 394.11 413.48 387.66 413.48 374.76 402.31 368.31 391.13 374.76"/><polygon class="cls-5" points="379.97 355.41 379.97 368.31 391.15 374.76 402.32 368.31 402.32 355.41 391.15 348.95 379.97 355.41"/><polygon class="cls-5" points="391.13 336.05 391.13 348.95 402.31 355.41 413.48 348.95 413.48 336.05 402.31 329.6 391.13 336.05"/><polygon class="cls-5" points="379.97 316.7 379.97 329.6 391.15 336.05 402.32 329.6 402.32 316.7 391.15 310.25 379.97 316.7"/><polygon class="cls-5" points="391.13 297.34 391.13 310.25 402.31 316.7 413.48 310.25 413.48 297.34 402.31 290.89 391.13 297.34"/><polygon class="cls-5" points="379.97 277.99 379.97 290.89 391.15 297.34 402.32 290.89 402.32 277.99 391.15 271.54 379.97 277.99"/><polygon class="cls-5" points="368.81 374.76 368.81 387.66 379.99 394.11 391.16 387.66 391.16 374.76 379.99 368.31 368.81 374.76"/><polygon class="cls-5" points="357.65 355.41 357.65 368.31 368.82 374.76 380 368.31 380 355.41 368.82 348.95 357.65 355.41"/><polygon class="cls-5" points="368.81 336.05 368.81 348.95 379.99 355.41 391.16 348.95 391.16 336.05 379.99 329.6 368.81 336.05"/><polygon class="cls-5" points="357.65 316.7 357.65 329.6 368.82 336.05 380 329.6 380 316.7 368.82 310.25 357.65 316.7"/><polygon class="cls-5" points="368.81 297.34 368.81 310.25 379.99 316.7 391.16 310.25 391.16 297.34 379.99 290.89 368.81 297.34"/><polygon class="cls-5" points="357.65 277.99 357.65 290.89 368.82 297.34 380 290.89 380 277.99 368.82 271.54 357.65 277.99"/><polygon class="cls-5" points="346.49 374.76 346.49 387.66 357.66 394.11 368.84 387.66 368.84 374.76 357.66 368.31 346.49 374.76"/><polygon class="cls-5" points="335.33 355.41 335.33 368.31 346.5 374.76 357.68 368.31 357.68 355.41 346.5 348.95 335.33 355.41"/><polygon class="cls-5" points="346.49 336.05 346.49 348.95 357.66 355.41 368.84 348.95 368.84 336.05 357.66 329.6 346.49 336.05"/><polygon class="cls-5" points="335.33 316.7 335.33 329.6 346.5 336.05 357.68 329.6 357.68 316.7 346.5 310.25 335.33 316.7"/><polygon class="cls-5" points="346.49 297.34 346.49 310.25 357.66 316.7 368.84 310.25 368.84 297.34 357.66 290.89 346.49 297.34"/><polygon class="cls-5" points="335.33 277.99 335.33 290.89 346.5 297.34 357.68 290.89 357.68 277.99 346.5 271.54 335.33 277.99"/><polygon class="cls-5" points="324.17 374.76 324.17 387.66 335.34 394.11 346.52 387.66 346.52 374.76 335.34 368.31 324.17 374.76"/><polygon class="cls-5" points="313.01 355.41 313.01 368.31 324.18 374.76 335.36 368.31 335.36 355.41 324.18 348.95 313.01 355.41"/><polygon class="cls-5" points="324.17 336.05 324.17 348.95 335.34 355.41 346.52 348.95 346.52 336.05 335.34 329.6 324.17 336.05"/><polygon class="cls-5" points="313.01 316.7 313.01 329.6 324.18 336.05 335.36 329.6 335.36 316.7 324.18 310.25 313.01 316.7"/><polygon class="cls-5" points="324.17 297.34 324.17 310.25 335.34 316.7 346.52 310.25 346.52 297.34 335.34 290.89 324.17 297.34"/><polygon class="cls-5" points="301.85 374.76 301.85 387.66 313.02 394.11 324.19 387.66 324.19 374.76 313.02 368.31 301.85 374.76"/><polygon class="cls-5" points="301.85 336.05 301.85 348.95 313.02 355.41 324.19 348.95 324.19 336.05 313.02 329.6 301.85 336.05"/></g><g id="MB"><polygon class="cls-6" points="313.01 277.99 313.01 290.89 324.18 297.34 335.36 290.89 335.36 277.99 324.18 271.54 313.01 277.99"/><polygon class="cls-6" points="324.17 258.63 324.17 271.54 335.34 277.99 346.52 271.54 346.52 258.63 335.34 252.18 324.17 258.63"/><polygon class="cls-6" points="313.01 239.28 313.01 252.18 324.18 258.63 335.36 252.18 335.36 239.28 324.18 232.83 313.01 239.28"/><polygon class="cls-6" points="290.69 355.41 290.69 368.31 301.86 374.76 313.03 368.31 313.03 355.41 301.86 348.95 290.69 355.41"/><polygon class="cls-6" points="290.69 316.7 290.69 329.6 301.86 336.05 313.03 329.6 313.03 316.7 301.86 310.25 290.69 316.7"/><polygon class="cls-6" points="301.85 297.34 301.85 310.25 313.02 316.7 324.19 310.25 324.19 297.34 313.02 290.89 301.85 297.34"/><polygon class="cls-6" points="290.69 277.99 290.69 290.89 301.86 297.34 313.03 290.89 313.03 277.99 301.86 271.54 290.69 277.99"/><polygon class="cls-6" points="301.85 258.63 301.85 271.54 313.02 277.99 324.19 271.54 324.19 258.63 313.02 252.18 301.85 258.63"/><polygon class="cls-6" points="290.69 239.28 290.69 252.18 301.86 258.63 313.03 252.18 313.03 239.28 301.86 232.83 290.69 239.28"/><polygon class="cls-6" points="279.52 374.76 279.52 387.66 290.7 394.11 301.87 387.66 301.87 374.76 290.7 368.31 279.52 374.76"/><polygon class="cls-6" points="268.36 355.41 268.36 368.31 279.54 374.76 290.71 368.31 290.71 355.41 279.54 348.95 268.36 355.41"/><polygon class="cls-6" points="279.52 336.05 279.52 348.95 290.7 355.41 301.87 348.95 301.87 336.05 290.7 329.6 279.52 336.05"/><polygon class="cls-6" points="268.36 316.7 268.36 329.6 279.54 336.05 290.71 329.6 290.71 316.7 279.54 310.25 268.36 316.7"/><polygon class="cls-6" points="279.52 297.34 279.52 310.25 290.7 316.7 301.87 310.25 301.87 297.34 290.7 290.89 279.52 297.34"/><polygon class="cls-6" points="268.36 277.99 268.36 290.89 279.54 297.34 290.71 290.89 290.71 277.99 279.54 271.54 268.36 277.99"/><polygon class="cls-6" points="279.52 258.63 279.52 271.54 290.7 277.99 301.87 271.54 301.87 258.63 290.7 252.18 279.52 258.63"/><polygon class="cls-6" points="268.36 239.28 268.36 252.18 279.54 258.63 290.71 252.18 290.71 239.28 279.54 232.83 268.36 239.28"/><polygon class="cls-6" points="279.52 219.93 279.52 232.83 290.7 239.28 301.87 232.83 301.87 219.93 290.7 213.47 279.52 219.93"/><polygon class="cls-6" points="257.2 374.76 257.2 387.66 268.38 394.11 279.55 387.66 279.55 374.76 268.38 368.31 257.2 374.76"/><polygon class="cls-6" points="246.04 355.41 246.04 368.31 257.21 374.76 268.39 368.31 268.39 355.41 257.21 348.95 246.04 355.41"/><polygon class="cls-6" points="257.2 336.05 257.2 348.95 268.38 355.41 279.55 348.95 279.55 336.05 268.38 329.6 257.2 336.05"/><polygon class="cls-6" points="246.04 316.7 246.04 329.6 257.21 336.05 268.39 329.6 268.39 316.7 257.21 310.25 246.04 316.7"/><polygon class="cls-6" points="257.2 297.34 257.2 310.25 268.38 316.7 279.55 310.25 279.55 297.34 268.38 290.89 257.2 297.34"/><polygon class="cls-6" points="246.04 277.99 246.04 290.89 257.21 297.34 268.39 290.89 268.39 277.99 257.21 271.54 246.04 277.99"/><polygon class="cls-6" points="257.2 258.63 257.2 271.54 268.38 277.99 279.55 271.54 279.55 258.63 268.38 252.18 257.2 258.63"/><polygon class="cls-6" points="246.04 239.28 246.04 252.18 257.21 258.63 268.39 252.18 268.39 239.28 257.21 232.83 246.04 239.28"/><polygon class="cls-6" points="257.2 219.93 257.2 232.83 268.38 239.28 279.55 232.83 279.55 219.93 268.38 213.47 257.2 219.93"/><polygon class="cls-6" points="234.88 374.76 234.88 387.66 246.05 394.11 257.23 387.66 257.23 374.76 246.05 368.31 234.88 374.76"/></g><g id="SK"><polygon class="cls-7" points="223.72 355.41 223.72 368.31 234.89 374.76 246.07 368.31 246.07 355.41 234.89 348.95 223.72 355.41"/><polygon class="cls-7" points="234.88 336.05 234.88 348.95 246.05 355.41 257.23 348.95 257.23 336.05 246.05 329.6 234.88 336.05"/><polygon class="cls-7" points="223.72 316.7 223.72 329.6 234.89 336.05 246.07 329.6 246.07 316.7 234.89 310.25 223.72 316.7"/><polygon class="cls-7" points="234.88 297.34 234.88 310.25 246.05 316.7 257.23 310.25 257.23 297.34 246.05 290.89 234.88 297.34"/><polygon class="cls-7" points="223.72 277.99 223.72 290.89 234.89 297.34 246.07 290.89 246.07 277.99 234.89 271.54 223.72 277.99"/><polygon class="cls-7" points="234.88 258.63 234.88 271.54 246.05 277.99 257.23 271.54 257.23 258.63 246.05 252.18 234.88 258.63"/><polygon class="cls-7" points="223.72 239.28 223.72 252.18 234.89 258.63 246.07 252.18 246.07 239.28 234.89 232.83 223.72 239.28"/><polygon class="cls-7" points="234.88 219.93 234.88 232.83 246.05 239.28 257.23 232.83 257.23 219.93 246.05 213.47 234.88 219.93"/><polygon class="cls-7" points="212.56 374.76 212.56 387.66 223.73 394.11 234.91 387.66 234.91 374.76 223.73 368.31 212.56 374.76"/><polygon class="cls-7" points="201.4 355.41 201.4 368.31 212.57 374.76 223.75 368.31 223.75 355.41 212.57 348.95 201.4 355.41"/><polygon class="cls-7" points="212.56 336.05 212.56 348.95 223.73 355.41 234.91 348.95 234.91 336.05 223.73 329.6 212.56 336.05"/><polygon class="cls-7" points="201.4 316.7 201.4 329.6 212.57 336.05 223.75 329.6 223.75 316.7 212.57 310.25 201.4 316.7"/><polygon class="cls-7" points="212.56 297.34 212.56 310.25 223.73 316.7 234.91 310.25 234.91 297.34 223.73 290.89 212.56 297.34"/><polygon class="cls-7" points="201.4 277.99 201.4 290.89 212.57 297.34 223.75 290.89 223.75 277.99 212.57 271.54 201.4 277.99"/><polygon class="cls-7" points="212.56 258.63 212.56 271.54 223.73 277.99 234.91 271.54 234.91 258.63 223.73 252.18 212.56 258.63"/><polygon class="cls-7" points="201.4 239.28 201.4 252.18 212.57 258.63 223.75 252.18 223.75 239.28 212.57 232.83 201.4 239.28"/><polygon class="cls-7" points="212.56 219.93 212.56 232.83 223.73 239.28 234.91 232.83 234.91 219.93 223.73 213.47 212.56 219.93"/><polygon class="cls-7" points="190.24 374.76 190.24 387.66 201.41 394.11 212.59 387.66 212.59 374.76 201.41 368.31 190.24 374.76"/><polygon class="cls-7" points="179.07 355.41 179.07 368.31 190.25 374.76 201.42 368.31 201.42 355.41 190.25 348.95 179.07 355.41"/><polygon class="cls-7" points="190.24 336.05 190.24 348.95 201.41 355.41 212.59 348.95 212.59 336.05 201.41 329.6 190.24 336.05"/><polygon class="cls-7" points="179.07 316.7 179.07 329.6 190.25 336.05 201.42 329.6 201.42 316.7 190.25 310.25 179.07 316.7"/><polygon class="cls-7" points="190.24 297.34 190.24 310.25 201.41 316.7 212.59 310.25 212.59 297.34 201.41 290.89 190.24 297.34"/><polygon class="cls-7" points="179.07 277.99 179.07 290.89 190.25 297.34 201.42 290.89 201.42 277.99 190.25 271.54 179.07 277.99"/><polygon class="cls-7" points="190.24 258.63 190.24 271.54 201.41 277.99 212.59 271.54 212.59 258.63 201.41 252.18 190.24 258.63"/><polygon class="cls-7" points="179.07 239.28 179.07 252.18 190.25 258.63 201.42 252.18 201.42 239.28 190.25 232.83 179.07 239.28"/><polygon class="cls-7" points="190.24 219.93 190.24 232.83 201.41 239.28 212.59 232.83 212.59 219.93 201.41 213.47 190.24 219.93"/><polygon class="cls-7" points="167.91 374.76 167.91 387.66 179.09 394.11 190.26 387.66 190.26 374.76 179.09 368.31 167.91 374.76"/><polygon class="cls-7" points="156.75 355.41 156.75 368.31 167.93 374.76 179.1 368.31 179.1 355.41 167.93 348.95 156.75 355.41"/><polygon class="cls-7" points="167.91 336.05 167.91 348.95 179.09 355.41 190.26 348.95 190.26 336.05 179.09 329.6 167.91 336.05"/></g><g id="NU"><polygon class="cls-8" points="379.97 161.86 379.97 174.77 391.15 181.22 402.32 174.77 402.32 161.86 391.15 155.41 379.97 161.86"/><polygon class="cls-8" points="357.65 161.86 357.65 174.77 368.82 181.22 380 174.77 380 161.86 368.82 155.41 357.65 161.86"/><polygon class="cls-8" points="368.81 142.51 368.81 155.41 379.99 161.86 391.16 155.41 391.16 142.51 379.99 136.06 368.81 142.51"/><polygon class="cls-8" points="357.65 123.15 357.65 136.06 368.82 142.51 380 136.06 380 123.15 368.82 116.7 357.65 123.15"/><polygon class="cls-8" points="335.33 161.86 335.33 174.77 346.5 181.22 357.68 174.77 357.68 161.86 346.5 155.41 335.33 161.86"/><polygon class="cls-8" points="346.49 142.51 346.49 155.41 357.66 161.86 368.84 155.41 368.84 142.51 357.66 136.06 346.49 142.51"/><polygon class="cls-8" points="335.33 123.15 335.33 136.06 346.5 142.51 357.68 136.06 357.68 123.15 346.5 116.7 335.33 123.15"/><polygon class="cls-8" points="346.49 103.8 346.49 116.7 357.66 123.15 368.84 116.7 368.84 103.8 357.66 97.35 346.49 103.8"/><polygon class="cls-8" points="335.33 84.45 335.33 97.35 346.5 103.8 357.68 97.35 357.68 84.45 346.5 77.99 335.33 84.45"/><polygon class="cls-8" points="313.01 161.86 313.01 174.77 324.18 181.22 335.36 174.77 335.36 161.86 324.18 155.41 313.01 161.86"/><polygon class="cls-8" points="324.17 142.51 324.17 155.41 335.34 161.86 346.52 155.41 346.52 142.51 335.34 136.06 324.17 142.51"/><polygon class="cls-8" points="313.01 123.15 313.01 136.06 324.18 142.51 335.36 136.06 335.36 123.15 324.18 116.7 313.01 123.15"/><polygon class="cls-8" points="324.17 103.8 324.17 116.7 335.34 123.15 346.52 116.7 346.52 103.8 335.34 97.35 324.17 103.8"/><polygon class="cls-8" points="313.01 84.45 313.01 97.35 324.18 103.8 335.36 97.35 335.36 84.45 324.18 77.99 313.01 84.45"/><polygon class="cls-8" points="324.17 65.09 324.17 77.99 335.34 84.45 346.52 77.99 346.52 65.09 335.34 58.64 324.17 65.09"/><polygon class="cls-8" points="313.01 45.74 313.01 58.64 324.18 65.09 335.36 58.64 335.36 45.74 324.18 39.29 313.01 45.74"/><polygon class="cls-8" points="290.69 200.57 290.69 213.47 301.86 219.93 313.03 213.47 313.03 200.57 301.86 194.12 290.69 200.57"/><polygon class="cls-8" points="301.85 181.22 301.85 194.12 313.02 200.57 324.19 194.12 324.19 181.22 313.02 174.77 301.85 181.22"/><polygon class="cls-8" points="290.69 161.86 290.69 174.77 301.86 181.22 313.03 174.77 313.03 161.86 301.86 155.41 290.69 161.86"/><polygon class="cls-8" points="301.85 142.51 301.85 155.41 313.02 161.86 324.19 155.41 324.19 142.51 313.02 136.06 301.85 142.51"/><polygon class="cls-8" points="290.69 123.15 290.69 136.06 301.86 142.51 313.03 136.06 313.03 123.15 301.86 116.7 290.69 123.15"/><polygon class="cls-8" points="301.85 103.8 301.85 116.7 313.02 123.15 324.19 116.7 324.19 103.8 313.02 97.35 301.85 103.8"/><polygon class="cls-8" points="290.69 84.45 290.69 97.35 301.86 103.8 313.03 97.35 313.03 84.45 301.86 77.99 290.69 84.45"/><polygon class="cls-8" points="301.85 65.09 301.85 77.99 313.02 84.45 324.19 77.99 324.19 65.09 313.02 58.64 301.85 65.09"/><polygon class="cls-8" points="290.69 45.74 290.69 58.64 301.86 65.09 313.03 58.64 313.03 45.74 301.86 39.29 290.69 45.74"/><polygon class="cls-8" points="268.36 200.57 268.36 213.47 279.54 219.93 290.71 213.47 290.71 200.57 279.54 194.12 268.36 200.57"/><polygon class="cls-8" points="279.52 181.22 279.52 194.12 290.7 200.57 301.87 194.12 301.87 181.22 290.7 174.77 279.52 181.22"/><polygon class="cls-8" points="268.36 161.86 268.36 174.77 279.54 181.22 290.71 174.77 290.71 161.86 279.54 155.41 268.36 161.86"/><polygon class="cls-8" points="279.52 142.51 279.52 155.41 290.7 161.86 301.87 155.41 301.87 142.51 290.7 136.06 279.52 142.51"/><polygon class="cls-8" points="268.36 123.15 268.36 136.06 279.54 142.51 290.71 136.06 290.71 123.15 279.54 116.7 268.36 123.15"/><polygon class="cls-8" points="279.52 103.8 279.52 116.7 290.7 123.15 301.87 116.7 301.87 103.8 290.7 97.35 279.52 103.8"/><polygon class="cls-8" points="268.36 84.45 268.36 97.35 279.54 103.8 290.71 97.35 290.71 84.45 279.54 77.99 268.36 84.45"/><polygon class="cls-8" points="279.52 65.09 279.52 77.99 290.7 84.45 301.87 77.99 301.87 65.09 290.7 58.64 279.52 65.09"/><polygon class="cls-8" points="268.36 45.74 268.36 58.64 279.54 65.09 290.71 58.64 290.71 45.74 279.54 39.29 268.36 45.74"/><polygon class="cls-8" points="246.04 200.57 246.04 213.47 257.21 219.93 268.39 213.47 268.39 200.57 257.21 194.12 246.04 200.57"/><polygon class="cls-8" points="257.2 181.22 257.2 194.12 268.38 200.57 279.55 194.12 279.55 181.22 268.38 174.77 257.2 181.22"/><polygon class="cls-8" points="246.04 161.86 246.04 174.77 257.21 181.22 268.39 174.77 268.39 161.86 257.21 155.41 246.04 161.86"/><polygon class="cls-8" points="257.2 142.51 257.2 155.41 268.38 161.86 279.55 155.41 279.55 142.51 268.38 136.06 257.2 142.51"/><polygon class="cls-8" points="246.04 123.15 246.04 136.06 257.21 142.51 268.39 136.06 268.39 123.15 257.21 116.7 246.04 123.15"/><polygon class="cls-8" points="257.2 103.8 257.2 116.7 268.38 123.15 279.55 116.7 279.55 103.8 268.38 97.35 257.2 103.8"/><polygon class="cls-8" points="246.04 84.45 246.04 97.35 257.21 103.8 268.39 97.35 268.39 84.45 257.21 77.99 246.04 84.45"/><polygon class="cls-8" points="257.2 65.09 257.2 77.99 268.38 84.45 279.55 77.99 279.55 65.09 268.38 58.64 257.2 65.09"/><polygon class="cls-8" points="246.04 45.74 246.04 58.64 257.21 65.09 268.39 58.64 268.39 45.74 257.21 39.29 246.04 45.74"/><polygon class="cls-8" points="257.2 26.38 257.2 39.29 268.38 45.74 279.55 39.29 279.55 26.38 268.38 19.93 257.2 26.38"/><polygon class="cls-8" points="234.88 142.51 234.88 155.41 246.05 161.86 257.23 155.41 257.23 142.51 246.05 136.06 234.88 142.51"/><polygon class="cls-8" points="223.72 123.15 223.72 136.06 234.89 142.51 246.07 136.06 246.07 123.15 234.89 116.7 223.72 123.15"/><polygon class="cls-8" points="234.88 103.8 234.88 116.7 246.05 123.15 257.23 116.7 257.23 103.8 246.05 97.35 234.88 103.8"/><polygon class="cls-8" points="223.72 84.45 223.72 97.35 234.89 103.8 246.07 97.35 246.07 84.45 234.89 77.99 223.72 84.45"/><polygon class="cls-8" points="234.88 65.09 234.88 77.99 246.05 84.45 257.23 77.99 257.23 65.09 246.05 58.64 234.88 65.09"/><polygon class="cls-8" points="223.72 45.74 223.72 58.64 234.89 65.09 246.07 58.64 246.07 45.74 234.89 39.29 223.72 45.74"/><polygon class="cls-8" points="234.88 26.38 234.88 39.29 246.05 45.74 257.23 39.29 257.23 26.38 246.05 19.93 234.88 26.38"/><polygon class="cls-8" points="223.72 7.03 223.72 19.93 234.89 26.38 246.07 19.93 246.07 7.03 234.89 0.58 223.72 7.03"/><polygon class="cls-8" points="201.4 123.15 201.4 136.06 212.57 142.51 223.75 136.06 223.75 123.15 212.57 116.7 201.4 123.15"/><polygon class="cls-8" points="212.56 103.8 212.56 116.7 223.73 123.15 234.91 116.7 234.91 103.8 223.73 97.35 212.56 103.8"/><polygon class="cls-8" points="201.4 84.45 201.4 97.35 212.57 103.8 223.75 97.35 223.75 84.45 212.57 77.99 201.4 84.45"/><polygon class="cls-8" points="212.56 65.09 212.56 77.99 223.73 84.45 234.91 77.99 234.91 65.09 223.73 58.64 212.56 65.09"/><polygon class="cls-8" points="201.4 45.74 201.4 58.64 212.57 65.09 223.75 58.64 223.75 45.74 212.57 39.29 201.4 45.74"/><polygon class="cls-8" points="212.56 26.38 212.56 39.29 223.73 45.74 234.91 39.29 234.91 26.38 223.73 19.93 212.56 26.38"/><polygon class="cls-8" points="201.4 7.03 201.4 19.93 212.57 26.38 223.75 19.93 223.75 7.03 212.57 0.58 201.4 7.03"/><polygon class="cls-8" points="190.24 103.8 190.24 116.7 201.41 123.15 212.59 116.7 212.59 103.8 201.41 97.35 190.24 103.8"/><polygon class="cls-8" points="190.24 65.09 190.24 77.99 201.41 84.45 212.59 77.99 212.59 65.09 201.41 58.64 190.24 65.09"/><polygon class="cls-8" points="179.07 45.74 179.07 58.64 190.25 65.09 201.42 58.64 201.42 45.74 190.25 39.29 179.07 45.74"/><polygon class="cls-8" points="190.24 26.38 190.24 39.29 201.41 45.74 212.59 39.29 212.59 26.38 201.41 19.93 190.24 26.38"/><polygon class="cls-8" points="179.07 7.03 179.07 19.93 190.25 26.38 201.42 19.93 201.42 7.03 190.25 0.58 179.07 7.03"/><polygon class="cls-8" points="167.91 26.38 167.91 39.29 179.09 45.74 190.26 39.29 190.26 26.38 179.09 19.93 167.91 26.38"/></g><g id="AB"><polygon class="cls-9" points="156.75 316.7 156.75 329.6 167.93 336.05 179.1 329.6 179.1 316.7 167.93 310.25 156.75 316.7"/><polygon class="cls-9" points="167.91 297.34 167.91 310.25 179.09 316.7 190.26 310.25 190.26 297.34 179.09 290.89 167.91 297.34"/><polygon class="cls-9" points="156.75 277.99 156.75 290.89 167.93 297.34 179.1 290.89 179.1 277.99 167.93 271.54 156.75 277.99"/><polygon class="cls-9" points="167.91 258.63 167.91 271.54 179.09 277.99 190.26 271.54 190.26 258.63 179.09 252.18 167.91 258.63"/><polygon class="cls-9" points="156.75 239.28 156.75 252.18 167.93 258.63 179.1 252.18 179.1 239.28 167.93 232.83 156.75 239.28"/><polygon class="cls-9" points="167.91 219.93 167.91 232.83 179.09 239.28 190.26 232.83 190.26 219.93 179.09 213.47 167.91 219.93"/><polygon class="cls-9" points="156.75 200.57 156.75 213.47 167.93 219.93 179.1 213.47 179.1 200.57 167.93 194.12 156.75 200.57"/><polygon class="cls-9" points="134.43 355.41 134.43 368.31 145.61 374.76 156.78 368.31 156.78 355.41 145.61 348.95 134.43 355.41"/><polygon class="cls-9" points="145.59 336.05 145.59 348.95 156.77 355.41 167.94 348.95 167.94 336.05 156.77 329.6 145.59 336.05"/><polygon class="cls-9" points="134.43 316.7 134.43 329.6 145.61 336.05 156.78 329.6 156.78 316.7 145.61 310.25 134.43 316.7"/><polygon class="cls-9" points="145.59 297.34 145.59 310.25 156.77 316.7 167.94 310.25 167.94 297.34 156.77 290.89 145.59 297.34"/><polygon class="cls-9" points="134.43 277.99 134.43 290.89 145.61 297.34 156.78 290.89 156.78 277.99 145.61 271.54 134.43 277.99"/><polygon class="cls-9" points="145.59 258.63 145.59 271.54 156.77 277.99 167.94 271.54 167.94 258.63 156.77 252.18 145.59 258.63"/><polygon class="cls-9" points="134.43 239.28 134.43 252.18 145.61 258.63 156.78 252.18 156.78 239.28 145.61 232.83 134.43 239.28"/><polygon class="cls-9" points="145.59 219.93 145.59 232.83 156.77 239.28 167.94 232.83 167.94 219.93 156.77 213.47 145.59 219.93"/><polygon class="cls-9" points="134.43 200.57 134.43 213.47 145.61 219.93 156.78 213.47 156.78 200.57 145.61 194.12 134.43 200.57"/><polygon class="cls-9" points="112.11 355.41 112.11 368.31 123.28 374.76 134.46 368.31 134.46 355.41 123.28 348.95 112.11 355.41"/><polygon class="cls-9" points="123.27 336.05 123.27 348.95 134.44 355.41 145.62 348.95 145.62 336.05 134.44 329.6 123.27 336.05"/><polygon class="cls-9" points="112.11 316.7 112.11 329.6 123.28 336.05 134.46 329.6 134.46 316.7 123.28 310.25 112.11 316.7"/><polygon class="cls-9" points="123.27 297.34 123.27 310.25 134.44 316.7 145.62 310.25 145.62 297.34 134.44 290.89 123.27 297.34"/><polygon class="cls-9" points="112.11 277.99 112.11 290.89 123.28 297.34 134.46 290.89 134.46 277.99 123.28 271.54 112.11 277.99"/><polygon class="cls-9" points="123.27 258.63 123.27 271.54 134.44 277.99 145.62 271.54 145.62 258.63 134.44 252.18 123.27 258.63"/><polygon class="cls-9" points="112.11 239.28 112.11 252.18 123.28 258.63 134.46 252.18 134.46 239.28 123.28 232.83 112.11 239.28"/><polygon class="cls-9" points="123.27 219.93 123.27 232.83 134.44 239.28 145.62 232.83 145.62 219.93 134.44 213.47 123.27 219.93"/><polygon class="cls-9" points="100.95 297.34 100.95 310.25 112.12 316.7 123.3 310.25 123.3 297.34 112.12 290.89 100.95 297.34"/><polygon class="cls-9" points="100.95 258.63 100.95 271.54 112.12 277.99 123.3 271.54 123.3 258.63 112.12 252.18 100.95 258.63"/></g><g id="BC"><polygon class="cls-10" points="11.66 181.22 11.66 194.12 22.84 200.57 34.01 194.12 34.01 181.22 22.84 174.77 11.66 181.22"/><polygon class="cls-10" points="112.11 200.57 112.11 213.47 123.28 219.93 134.46 213.47 134.46 200.57 123.28 194.12 112.11 200.57"/><polygon class="cls-10" points="100.95 336.05 100.95 348.95 112.12 355.41 123.3 348.95 123.3 336.05 112.12 329.6 100.95 336.05"/><polygon class="cls-10" points="89.79 316.7 89.79 329.6 100.96 336.05 112.14 329.6 112.14 316.7 100.96 310.25 89.79 316.7"/><polygon class="cls-10" points="89.79 277.99 89.79 290.89 100.96 297.34 112.14 290.89 112.14 277.99 100.96 271.54 89.79 277.99"/><polygon class="cls-10" points="89.79 239.28 89.79 252.18 100.96 258.63 112.14 252.18 112.14 239.28 100.96 232.83 89.79 239.28"/><polygon class="cls-10" points="100.95 219.93 100.95 232.83 112.12 239.28 123.3 232.83 123.3 219.93 112.12 213.47 100.95 219.93"/><polygon class="cls-10" points="89.79 200.57 89.79 213.47 100.96 219.93 112.14 213.47 112.14 200.57 100.96 194.12 89.79 200.57"/><polygon class="cls-10" points="100.95 181.22 100.95 194.12 112.12 200.57 123.3 194.12 123.3 181.22 112.12 174.77 100.95 181.22"/><polygon class="cls-10" points="78.63 336.05 78.63 348.95 89.8 355.41 100.97 348.95 100.97 336.05 89.8 329.6 78.63 336.05"/><polygon class="cls-10" points="67.47 316.7 67.47 329.6 78.64 336.05 89.81 329.6 89.81 316.7 78.64 310.25 67.47 316.7"/><polygon class="cls-10" points="78.63 297.34 78.63 310.25 89.8 316.7 100.97 310.25 100.97 297.34 89.8 290.89 78.63 297.34"/><polygon class="cls-10" points="67.47 277.99 67.47 290.89 78.64 297.34 89.81 290.89 89.81 277.99 78.64 271.54 67.47 277.99"/><polygon class="cls-10" points="78.63 258.63 78.63 271.54 89.8 277.99 100.97 271.54 100.97 258.63 89.8 252.18 78.63 258.63"/><polygon class="cls-10" points="67.47 239.28 67.47 252.18 78.64 258.63 89.81 252.18 89.81 239.28 78.64 232.83 67.47 239.28"/><polygon class="cls-10" points="78.63 219.93 78.63 232.83 89.8 239.28 100.97 232.83 100.97 219.93 89.8 213.47 78.63 219.93"/><polygon class="cls-10" points="67.47 200.57 67.47 213.47 78.64 219.93 89.81 213.47 89.81 200.57 78.64 194.12 67.47 200.57"/><polygon class="cls-10" points="78.63 181.22 78.63 194.12 89.8 200.57 100.97 194.12 100.97 181.22 89.8 174.77 78.63 181.22"/><polygon class="cls-10" points="56.3 336.05 56.3 348.95 67.48 355.41 78.65 348.95 78.65 336.05 67.48 329.6 56.3 336.05"/><polygon class="cls-10" points="45.14 316.7 45.14 329.6 56.32 336.05 67.49 329.6 67.49 316.7 56.32 310.25 45.14 316.7"/><polygon class="cls-10" points="56.3 297.34 56.3 310.25 67.48 316.7 78.65 310.25 78.65 297.34 67.48 290.89 56.3 297.34"/><polygon class="cls-10" points="45.14 277.99 45.14 290.89 56.32 297.34 67.49 290.89 67.49 277.99 56.32 271.54 45.14 277.99"/><polygon class="cls-10" points="56.3 258.63 56.3 271.54 67.48 277.99 78.65 271.54 78.65 258.63 67.48 252.18 56.3 258.63"/><polygon class="cls-10" points="45.14 239.28 45.14 252.18 56.32 258.63 67.49 252.18 67.49 239.28 56.32 232.83 45.14 239.28"/><polygon class="cls-10" points="56.3 219.93 56.3 232.83 67.48 239.28 78.65 232.83 78.65 219.93 67.48 213.47 56.3 219.93"/><polygon class="cls-10" points="45.14 200.57 45.14 213.47 56.32 219.93 67.49 213.47 67.49 200.57 56.32 194.12 45.14 200.57"/><polygon class="cls-10" points="56.3 181.22 56.3 194.12 67.48 200.57 78.65 194.12 78.65 181.22 67.48 174.77 56.3 181.22"/><polygon class="cls-10" points="45.14 161.86 45.14 174.77 56.32 181.22 67.49 174.77 67.49 161.86 56.32 155.41 45.14 161.86"/><polygon class="cls-10" points="33.98 336.05 33.98 348.95 45.16 355.41 56.33 348.95 56.33 336.05 45.16 329.6 33.98 336.05"/><polygon class="cls-10" points="22.82 316.7 22.82 329.6 34 336.05 45.17 329.6 45.17 316.7 34 310.25 22.82 316.7"/><polygon class="cls-10" points="33.98 297.34 33.98 310.25 45.16 316.7 56.33 310.25 56.33 297.34 45.16 290.89 33.98 297.34"/><polygon class="cls-10" points="22.82 277.99 22.82 290.89 34 297.34 45.17 290.89 45.17 277.99 34 271.54 22.82 277.99"/><polygon class="cls-10" points="33.98 258.63 33.98 271.54 45.16 277.99 56.33 271.54 56.33 258.63 45.16 252.18 33.98 258.63"/><polygon class="cls-10" points="22.82 239.28 22.82 252.18 34 258.63 45.17 252.18 45.17 239.28 34 232.83 22.82 239.28"/><polygon class="cls-10" points="33.98 219.93 33.98 232.83 45.16 239.28 56.33 232.83 56.33 219.93 45.16 213.47 33.98 219.93"/><polygon class="cls-10" points="22.82 200.57 22.82 213.47 34 219.93 45.17 213.47 45.17 200.57 34 194.12 22.82 200.57"/><polygon class="cls-10" points="33.98 181.22 33.98 194.12 45.16 200.57 56.33 194.12 56.33 181.22 45.16 174.77 33.98 181.22"/><polygon class="cls-10" points="22.82 161.86 22.82 174.77 34 181.22 45.17 174.77 45.17 161.86 34 155.41 22.82 161.86"/><polygon class="cls-10" points="33.98 142.51 33.98 155.41 45.16 161.86 56.33 155.41 56.33 142.51 45.16 136.06 33.98 142.51"/><polygon class="cls-10" points="11.66 297.34 11.66 310.25 22.84 316.7 34.01 310.25 34.01 297.34 22.84 290.89 11.66 297.34"/><polygon class="cls-10" points="0.5 277.99 0.5 290.89 11.67 297.34 22.85 290.89 22.85 277.99 11.67 271.54 0.5 277.99"/><polygon class="cls-10" points="11.66 258.63 11.66 271.54 22.84 277.99 34.01 271.54 34.01 258.63 22.84 252.18 11.66 258.63"/><polygon class="cls-10" points="11.66 219.93 11.66 232.83 22.84 239.28 34.01 232.83 34.01 219.93 22.84 213.47 11.66 219.93"/><polygon class="cls-10" points="0.5 161.86 0.5 174.77 11.67 181.22 22.85 174.77 22.85 161.86 11.67 155.41 0.5 161.86"/><polygon class="cls-10" points="11.66 142.51 11.66 155.41 22.84 161.86 34.01 155.41 34.01 142.51 22.84 136.06 11.66 142.51"/></g><g id="NT"><polygon class="cls-11" points="223.72 200.57 223.72 213.47 234.89 219.93 246.07 213.47 246.07 200.57 234.89 194.12 223.72 200.57"/><polygon class="cls-11" points="234.88 181.22 234.88 194.12 246.05 200.57 257.23 194.12 257.23 181.22 246.05 174.77 234.88 181.22"/><polygon class="cls-11" points="223.72 161.86 223.72 174.77 234.89 181.22 246.07 174.77 246.07 161.86 234.89 155.41 223.72 161.86"/><polygon class="cls-11" points="201.4 200.57 201.4 213.47 212.57 219.93 223.75 213.47 223.75 200.57 212.57 194.12 201.4 200.57"/><polygon class="cls-11" points="212.56 181.22 212.56 194.12 223.73 200.57 234.91 194.12 234.91 181.22 223.73 174.77 212.56 181.22"/><polygon class="cls-11" points="201.4 161.86 201.4 174.77 212.57 181.22 223.75 174.77 223.75 161.86 212.57 155.41 201.4 161.86"/><polygon class="cls-11" points="212.56 142.51 212.56 155.41 223.73 161.86 234.91 155.41 234.91 142.51 223.73 136.06 212.56 142.51"/><polygon class="cls-11" points="179.07 200.57 179.07 213.47 190.25 219.93 201.42 213.47 201.42 200.57 190.25 194.12 179.07 200.57"/><polygon class="cls-11" points="190.24 181.22 190.24 194.12 201.41 200.57 212.59 194.12 212.59 181.22 201.41 174.77 190.24 181.22"/><polygon class="cls-11" points="179.07 161.86 179.07 174.77 190.25 181.22 201.42 174.77 201.42 161.86 190.25 155.41 179.07 161.86"/><polygon class="cls-11" points="190.24 142.51 190.24 155.41 201.41 161.86 212.59 155.41 212.59 142.51 201.41 136.06 190.24 142.51"/><polygon class="cls-11" points="179.07 123.15 179.07 136.06 190.25 142.51 201.42 136.06 201.42 123.15 190.25 116.7 179.07 123.15"/><polygon class="cls-11" points="179.07 84.45 179.07 97.35 190.25 103.8 201.42 97.35 201.42 84.45 190.25 77.99 179.07 84.45"/><polygon class="cls-11" points="167.91 181.22 167.91 194.12 179.09 200.57 190.26 194.12 190.26 181.22 179.09 174.77 167.91 181.22"/><polygon class="cls-11" points="156.75 161.86 156.75 174.77 167.93 181.22 179.1 174.77 179.1 161.86 167.93 155.41 156.75 161.86"/><polygon class="cls-11" points="167.91 142.51 167.91 155.41 179.09 161.86 190.26 155.41 190.26 142.51 179.09 136.06 167.91 142.51"/><polygon class="cls-11" points="156.75 123.15 156.75 136.06 167.93 142.51 179.1 136.06 179.1 123.15 167.93 116.7 156.75 123.15"/><polygon class="cls-11" points="167.91 103.8 167.91 116.7 179.09 123.15 190.26 116.7 190.26 103.8 179.09 97.35 167.91 103.8"/><polygon class="cls-11" points="156.75 84.45 156.75 97.35 167.93 103.8 179.1 97.35 179.1 84.45 167.93 77.99 156.75 84.45"/><polygon class="cls-11" points="167.91 65.09 167.91 77.99 179.09 84.45 190.26 77.99 190.26 65.09 179.09 58.64 167.91 65.09"/><polygon class="cls-11" points="156.75 45.74 156.75 58.64 167.93 65.09 179.1 58.64 179.1 45.74 167.93 39.29 156.75 45.74"/><polygon class="cls-11" points="145.59 181.22 145.59 194.12 156.77 200.57 167.94 194.12 167.94 181.22 156.77 174.77 145.59 181.22"/><polygon class="cls-11" points="134.43 161.86 134.43 174.77 145.61 181.22 156.78 174.77 156.78 161.86 145.61 155.41 134.43 161.86"/><polygon class="cls-11" points="145.59 142.51 145.59 155.41 156.77 161.86 167.94 155.41 167.94 142.51 156.77 136.06 145.59 142.51"/><polygon class="cls-11" points="134.43 123.15 134.43 136.06 145.61 142.51 156.78 136.06 156.78 123.15 145.61 116.7 134.43 123.15"/><polygon class="cls-11" points="145.59 103.8 145.59 116.7 156.77 123.15 167.94 116.7 167.94 103.8 156.77 97.35 145.59 103.8"/><polygon class="cls-11" points="134.43 84.45 134.43 97.35 145.61 103.8 156.78 97.35 156.78 84.45 145.61 77.99 134.43 84.45"/><polygon class="cls-11" points="145.59 65.09 145.59 77.99 156.77 84.45 167.94 77.99 167.94 65.09 156.77 58.64 145.59 65.09"/><polygon class="cls-11" points="134.43 45.74 134.43 58.64 145.61 65.09 156.78 58.64 156.78 45.74 145.61 39.29 134.43 45.74"/><polygon class="cls-11" points="145.59 26.38 145.59 39.29 156.77 45.74 167.94 39.29 167.94 26.38 156.77 19.93 145.59 26.38"/><polygon class="cls-11" points="123.27 181.22 123.27 194.12 134.44 200.57 145.62 194.12 145.62 181.22 134.44 174.77 123.27 181.22"/><polygon class="cls-11" points="112.11 161.86 112.11 174.77 123.28 181.22 134.46 174.77 134.46 161.86 123.28 155.41 112.11 161.86"/><polygon class="cls-11" points="123.27 142.51 123.27 155.41 134.44 161.86 145.62 155.41 145.62 142.51 134.44 136.06 123.27 142.51"/><polygon class="cls-11" points="112.11 123.15 112.11 136.06 123.28 142.51 134.46 136.06 134.46 123.15 123.28 116.7 112.11 123.15"/><polygon class="cls-11" points="123.27 103.8 123.27 116.7 134.44 123.15 145.62 116.7 145.62 103.8 134.44 97.35 123.27 103.8"/><polygon class="cls-11" points="112.11 84.45 112.11 97.35 123.28 103.8 134.46 97.35 134.46 84.45 123.28 77.99 112.11 84.45"/><polygon class="cls-11" points="123.27 65.09 123.27 77.99 134.44 84.45 145.62 77.99 145.62 65.09 134.44 58.64 123.27 65.09"/><polygon class="cls-11" points="112.11 45.74 112.11 58.64 123.28 65.09 134.46 58.64 134.46 45.74 123.28 39.29 112.11 45.74"/><polygon class="cls-11" points="123.27 26.38 123.27 39.29 134.44 45.74 145.62 39.29 145.62 26.38 134.44 19.93 123.27 26.38"/><polygon class="cls-11" points="100.95 142.51 100.95 155.41 112.12 161.86 123.3 155.41 123.3 142.51 112.12 136.06 100.95 142.51"/><polygon class="cls-11" points="100.95 103.8 100.95 116.7 112.12 123.15 123.3 116.7 123.3 103.8 112.12 97.35 100.95 103.8"/><polygon class="cls-11" points="100.95 65.09 100.95 77.99 112.12 84.45 123.3 77.99 123.3 65.09 112.12 58.64 100.95 65.09"/></g><g id="YT" class="cls-12"><polygon class="cls-13" points="89.79 161.86 89.79 174.77 100.96 181.22 112.14 174.77 112.14 161.86 100.96 155.41 89.79 161.86"/><polygon class="cls-13" points="89.79 123.15 89.79 136.06 100.96 142.51 112.14 136.06 112.14 123.15 100.96 116.7 89.79 123.15"/><polygon class="cls-13" points="67.47 161.86 67.47 174.77 78.64 181.22 89.81 174.77 89.81 161.86 78.64 155.41 67.47 161.86"/><polygon class="cls-13" points="22.82 123.15 22.82 136.06 34 142.51 45.17 136.06 45.17 123.15 34 116.7 22.82 123.15"/><polygon class="cls-13" points="89.79 84.45 89.79 97.35 100.96 103.8 112.14 97.35 112.14 84.45 100.96 77.99 89.79 84.45"/><polygon class="cls-13" points="89.79 45.74 89.79 58.64 100.96 65.09 112.14 58.64 112.14 45.74 100.96 39.29 89.79 45.74"/><polygon class="cls-13" points="78.63 142.51 78.63 155.41 89.8 161.86 100.97 155.41 100.97 142.51 89.8 136.06 78.63 142.51"/><polygon class="cls-13" points="67.47 123.15 67.47 136.06 78.64 142.51 89.81 136.06 89.81 123.15 78.64 116.7 67.47 123.15"/><polygon class="cls-13" points="78.63 103.8 78.63 116.7 89.8 123.15 100.97 116.7 100.97 103.8 89.8 97.35 78.63 103.8"/><polygon class="cls-13" points="67.47 84.45 67.47 97.35 78.64 103.8 89.81 97.35 89.81 84.45 78.64 77.99 67.47 84.45"/><polygon class="cls-13" points="78.63 65.09 78.63 77.99 89.8 84.45 100.97 77.99 100.97 65.09 89.8 58.64 78.63 65.09"/><polygon class="cls-13" points="67.47 45.74 67.47 58.64 78.64 65.09 89.81 58.64 89.81 45.74 78.64 39.29 67.47 45.74"/><polygon class="cls-13" points="78.63 26.38 78.63 39.29 89.8 45.74 100.97 39.29 100.97 26.38 89.8 19.93 78.63 26.38"/><polygon class="cls-13" points="56.3 142.51 56.3 155.41 67.48 161.86 78.65 155.41 78.65 142.51 67.48 136.06 56.3 142.51"/><polygon class="cls-13" points="45.14 123.15 45.14 136.06 56.32 142.51 67.49 136.06 67.49 123.15 56.32 116.7 45.14 123.15"/><polygon class="cls-13" points="56.3 103.8 56.3 116.7 67.48 123.15 78.65 116.7 78.65 103.8 67.48 97.35 56.3 103.8"/><polygon class="cls-13" points="45.14 84.45 45.14 97.35 56.32 103.8 67.49 97.35 67.49 84.45 56.32 77.99 45.14 84.45"/><polygon class="cls-13" points="56.3 65.09 56.3 77.99 67.48 84.45 78.65 77.99 78.65 65.09 67.48 58.64 56.3 65.09"/><polygon class="cls-13" points="45.14 45.74 45.14 58.64 56.32 65.09 67.49 58.64 67.49 45.74 56.32 39.29 45.14 45.74"/><polygon class="cls-13" points="56.3 26.38 56.3 39.29 67.48 45.74 78.65 39.29 78.65 26.38 67.48 19.93 56.3 26.38"/><polygon class="cls-13" points="33.98 103.8 33.98 116.7 45.16 123.15 56.33 116.7 56.33 103.8 45.16 97.35 33.98 103.8"/><polygon class="cls-13" points="22.82 84.45 22.82 97.35 34 103.8 45.17 97.35 45.17 84.45 34 77.99 22.82 84.45"/><polygon class="cls-13" points="33.98 65.09 33.98 77.99 45.16 84.45 56.33 77.99 56.33 65.09 45.16 58.64 33.98 65.09"/><polygon class="cls-13" points="11.66 103.8 11.66 116.7 22.84 123.15 34.01 116.7 34.01 103.8 22.84 97.35 11.66 103.8"/></g></svg>